<svg xmlns="http://www.w3.org/2000/svg" width="25.727" height="25.727" viewBox="0 0 25.727 25.727"><path d="M217.727,148.319a6.031,6.031,0,0,1-.183,1.288,7.26,7.26,0,0,1-.384,1.252,4.9,4.9,0,0,1-2.229,1.937,6.774,6.774,0,0,1-4.358.868,7.9,7.9,0,0,1-1.051-.228q-.585-.164-.868-.265t-1.014-.375q-.731-.274-.9-.329a16.547,16.547,0,0,1-3.2-1.517,30.692,30.692,0,0,1-8.771-8.771,16.549,16.549,0,0,1-1.517-3.2q-.055-.164-.329-.9t-.375-1.014q-.1-.283-.265-.868a7.9,7.9,0,0,1-.228-1.051,6.774,6.774,0,0,1,.868-4.358,4.9,4.9,0,0,1,1.937-2.229,7.26,7.26,0,0,1,1.252-.384,6.031,6.031,0,0,1,1.288-.183,1.023,1.023,0,0,1,.384.055q.329.11.968,1.389.2.347.548.987t.64,1.16q.292.521.566.978.055.073.32.457a5.1,5.1,0,0,1,.393.649,1.192,1.192,0,0,1,.128.521,1.517,1.517,0,0,1-.521.914,8.911,8.911,0,0,1-1.133,1,11,11,0,0,0-1.133.968,1.392,1.392,0,0,0-.521.841,1.235,1.235,0,0,0,.091.411,3.985,3.985,0,0,0,.155.375q.064.128.256.439t.21.347a18.11,18.11,0,0,0,7.473,7.473q.037.018.347.21t.439.256a3.982,3.982,0,0,0,.375.155,1.235,1.235,0,0,0,.411.091,1.392,1.392,0,0,0,.841-.521,11,11,0,0,0,.968-1.133,8.9,8.9,0,0,1,1-1.133,1.517,1.517,0,0,1,.914-.521,1.192,1.192,0,0,1,.521.128,5.1,5.1,0,0,1,.649.393q.384.265.457.32.457.274.978.566t1.16.64q.64.347.987.548,1.279.64,1.389.968A1.023,1.023,0,0,1,217.727,148.319Z" transform="translate(-192 -128)" fill="#fff"/></svg>